<?xml version="1.0" standalone="no"?>
<!DOCTYPE svg PUBLIC "-//W3C//DTD SVG 20010904//EN"
 "http://www.w3.org/TR/2001/REC-SVG-20010904/DTD/svg10.dtd">
<svg version="1.0" xmlns="http://www.w3.org/2000/svg"
 width="720.000000pt" height="720.000000pt" viewBox="0 0 720.000000 720.000000"
 preserveAspectRatio="xMidYMid meet">
<metadata>
Created by potrace 1.11, written by Peter Selinger 2001-2013
</metadata>
<g transform="translate(0.000000,720.000000) scale(0.100000,-0.100000)"
fill="#000000" stroke="none">
<path d="M3368 7195 c-2 -2 -43 -6 -92 -10 -49 -3 -92 -7 -95 -9 -3 -2 -33 -7
-66 -11 -64 -7 -114 -14 -149 -21 -11 -2 -32 -6 -46 -9 -53 -10 -72 -14 -88
-19 -9 -3 -28 -7 -42 -10 -36 -6 -215 -54 -290 -78 -195 -61 -494 -194 -673
-297 -49 -28 -92 -51 -97 -51 -5 0 -10 -4 -12 -8 -1 -4 -34 -27 -73 -51 -61
-39 -281 -196 -295 -211 -3 -3 -30 -25 -60 -50 -158 -130 -372 -348 -493 -503
-23 -28 -44 -54 -48 -57 -16 -14 -175 -248 -234 -345 -89 -147 -201 -378 -270
-553 -30 -79 -57 -151 -59 -160 -1 -9 -6 -24 -9 -32 -37 -98 -115 -419 -131
-545 -3 -22 -8 -51 -10 -65 -6 -28 -11 -79 -23 -195 -15 -151 -8 -621 12 -723
1 -9 6 -44 10 -77 5 -49 30 -185 50 -280 3 -11 7 -33 11 -50 14 -70 90 -319
132 -430 99 -266 250 -559 404 -783 41 -59 171 -230 195 -257 10 -11 47 -54
83 -95 462 -531 1135 -937 1830 -1103 80 -19 161 -38 180 -41 19 -3 46 -8 60
-11 34 -7 118 -20 197 -30 159 -20 567 -27 738 -12 73 6 305 39 365 52 14 2
36 7 49 10 159 31 430 113 601 180 105 41 419 194 484 235 22 15 79 51 126 80
706 443 1264 1179 1503 1985 20 66 38 131 41 145 3 14 14 61 25 105 18 73 26
113 35 170 2 11 6 34 9 50 3 17 9 55 13 85 4 30 8 66 10 80 13 96 19 235 19
425 0 252 -10 368 -46 580 -153 896 -628 1693 -1342 2248 -102 79 -348 247
-363 247 -4 0 -15 7 -24 15 -28 25 -339 179 -464 228 -168 68 -425 150 -536
172 -8 2 -49 10 -90 19 -41 8 -91 18 -110 21 -32 6 -47 8 -120 20 -14 2 -54 7
-90 10 -36 4 -78 9 -95 12 -35 5 -542 13 -547 8z"/>
</g>
</svg>
